<?xml version='1.0' encoding='utf-8'?>
<svg xmlns="http://www.w3.org/2000/svg" version="1.1" id="Capa_1" x="0px" y="0px" viewBox="0 0 576.6 558.9" style="enable-background:new 0 0 576.6 558.9;"> <style type="text/css"> .st0{fill:#FFEEE3;} .st1{fill:#D69DA8;} .st2{fill:#EAADBC;} .st3{fill:none;} </style> <rect class="st0" width="576.6" height="558.9"/> <path class="st1" d="M258.8,30.1c-11.2-7.5-27.6-3.1-38.5,9.8c-9.7-13.6-25.6-19.4-37.3-12.9c-13,7.1-16,26.5-6.7,43.2 c9.2,16.7,44.1,41.3,44.1,41.3s30.7-21.9,41.4-37.8C272.3,58,271,38.4,258.8,30.1z"/> <path class="st2" d="M197.8,35c4.3,4.3-1.3,6.2-5.9,10.8c-4.6,4.6-6.5,10.2-10.8,5.9c-4.3-4.3-4-11.4,0.6-16 C186.4,31,193.6,30.7,197.8,35z"/> <path class="st1" d="M527.3,31.2c-11.2-7.5-27.6-3.1-38.5,9.8c-9.7-13.6-25.6-19.4-37.3-12.9c-13,7.1-16,26.5-6.7,43.2 c9.2,16.7,44.1,41.3,44.1,41.3s30.7-21.9,41.4-37.8C540.9,59,539.6,39.4,527.3,31.2z"/> <path class="st2" d="M466.4,36c4.3,4.3-1.3,6.2-5.9,10.8S454,57,449.8,52.7c-4.3-4.3-4-11.4,0.6-16C455,32.1,462.1,31.8,466.4,36z"/> <path class="st1" d="M258.8,298.2c-11.2-7.5-27.6-3.1-38.5,9.8c-9.7-13.6-25.6-19.4-37.3-12.9c-13,7.1-16,26.5-6.7,43.2 c9.2,16.7,44.1,41.3,44.1,41.3s30.7-21.9,41.4-37.8C272.3,326,271,306.5,258.8,298.2z"/> <path class="st2" d="M197.8,303.1c4.3,4.3-1.3,6.2-5.9,10.8c-4.6,4.6-6.5,10.2-10.8,5.9c-4.3-4.3-4-11.4,0.6-16 C186.4,299.1,193.6,298.8,197.8,303.1z"/> <path class="st1" d="M393.1,164.4c-11.2-7.5-27.6-3.1-38.5,9.8c-9.7-13.6-25.6-19.4-37.3-12.9c-13,7.1-16,26.5-6.7,43.2 c9.2,16.7,44.1,41.3,44.1,41.3s30.7-21.9,41.4-37.8C406.6,192.2,405.3,172.7,393.1,164.4z"/> <path class="st2" d="M332.1,169.3c4.3,4.3-1.3,6.2-5.9,10.8c-4.6,4.6-6.5,10.2-10.8,5.9c-4.3-4.3-4-11.4,0.6-16 C320.7,165.3,327.8,165,332.1,169.3z"/> <path class="st1" d="M124.3,164.4c-11.2-7.5-27.6-3.1-38.5,9.8c-9.7-13.6-25.6-19.4-37.3-12.9c-13,7.1-16,26.5-6.7,43.2 c9.2,16.7,44.1,41.3,44.1,41.3s30.7-21.9,41.4-37.8C137.9,192.2,136.6,172.7,124.3,164.4z"/> <path class="st2" d="M63.4,169.3c4.3,4.3-1.3,6.2-5.9,10.8c-4.6,4.6-6.5,10.2-10.8,5.9c-4.3-4.3-4-11.4,0.6-16 C51.9,165.3,59.1,165,63.4,169.3z"/> <path class="st1" d="M393.1,431.9c-11.2-7.5-27.6-3.1-38.5,9.8c-9.7-13.6-25.6-19.4-37.3-12.9c-13,7.1-16,26.5-6.7,43.2 c9.2,16.7,44.1,41.3,44.1,41.3s30.7-21.9,41.4-37.8C406.6,459.8,405.3,440.2,393.1,431.9z"/> <path class="st2" d="M332.1,436.8c4.3,4.3-1.3,6.2-5.9,10.8c-4.6,4.6-6.5,10.2-10.8,5.9c-4.3-4.3-4-11.4,0.6-16 C320.7,432.8,327.8,432.5,332.1,436.8z"/> <path class="st1" d="M124.3,431.9c-11.2-7.5-27.6-3.1-38.5,9.8c-9.7-13.6-25.6-19.4-37.3-12.9c-13,7.1-16,26.5-6.7,43.2 c9.2,16.7,44.1,41.3,44.1,41.3s30.7-21.9,41.4-37.8C137.9,459.8,136.6,440.2,124.3,431.9z"/> <path class="st2" d="M63.4,436.8c4.3,4.3-1.3,6.2-5.9,10.8c-4.6,4.6-6.5,10.2-10.8,5.9c-4.3-4.3-4-11.4,0.6-16 C51.9,432.8,59.1,432.5,63.4,436.8z"/> <path class="st1" d="M527.3,299.2c-11.2-7.5-27.6-3.1-38.5,9.8c-9.7-13.6-25.6-19.4-37.3-12.9c-13,7.1-16,26.5-6.7,43.2 c9.2,16.7,44.1,41.3,44.1,41.3s30.7-21.9,41.4-37.8C540.9,327.1,539.6,307.5,527.3,299.2z"/> <path class="st2" d="M466.4,304.1c4.3,4.3-1.3,6.2-5.9,10.8c-4.6,4.6-6.5,10.2-10.8,5.9c-4.3-4.3-4-11.4,0.6-16 C455,300.1,462.1,299.8,466.4,304.1z"/> <rect y="24.4" class="st3" width="576.6" height="534.5"/> </svg>